<?xml version="1.0" standalone="no"?>
<!DOCTYPE svg PUBLIC "-//W3C//DTD SVG 20010904//EN"
 "http://www.w3.org/TR/2001/REC-SVG-20010904/DTD/svg10.dtd">
<svg version="1.0" xmlns="http://www.w3.org/2000/svg"
 width="256.000000pt" height="256.000000pt" viewBox="0 0 256.000000 256.000000"
 preserveAspectRatio="xMidYMid meet">
<metadata>
Created by potrace 1.14, written by Peter Selinger 2001-2017
</metadata>
<g transform="translate(0.000000,256.000000) scale(0.100000,-0.100000)"
fill="#000000" stroke="none">
<path d="M286 2542 c-19 -4 -19 -2 0 -87 2 -11 8 -42 14 -70 14 -74 19 -95 25
-115 3 -10 7 -27 10 -37 7 -39 65 -176 99 -237 59 -106 110 -166 216 -256 36
-30 67 -58 68 -62 2 -5 7 -8 11 -8 5 0 41 -22 82 -48 122 -80 254 -138 654
-286 99 -37 204 -78 233 -92 29 -13 55 -24 58 -24 3 0 43 -24 87 -53 119 -78
204 -165 269 -275 l25 -43 13 48 c19 71 22 229 6 285 -25 82 -40 103 -168 242
-52 55 -50 70 6 64 37 -5 189 -69 206 -88 3 -3 22 -18 43 -33 32 -24 37 -26
38 -10 0 10 2 125 2 257 2 178 -1 240 -10 243 -7 3 -28 0 -47 -7 -19 -6 -45
-13 -58 -15 -13 -3 -34 -7 -48 -10 -72 -15 -100 -19 -156 -18 -97 1 -180 47
-219 124 -18 34 -21 103 -7 139 34 84 177 152 298 144 93 -7 203 -34 232 -57
15 -12 14 -26 16 191 0 113 -3 186 -9 190 -5 4 -187 7 -404 7 l-393 0 -10 -25
c-8 -23 -14 -56 -22 -145 -5 -45 -15 -63 -40 -69 -61 -15 -109 -20 -201 -20
-140 0 -194 31 -152 88 9 13 30 19 71 22 125 8 225 60 229 119 l2 30 -280 0
c-254 1 -282 0 -297 -16 -10 -10 -24 -21 -31 -26 -25 -15 -65 -78 -82 -128 -9
-27 -18 -86 -20 -130 -2 -44 -4 -81 -4 -83 -1 -2 -8 3 -16 12 -20 19 -52 95
-59 138 -3 18 -8 44 -10 57 -3 13 -8 56 -12 95 -3 39 -8 73 -10 75 -5 5 -223
8 -248 3z"/>
<path d="M276 1822 c-9 -16 5 -133 25 -207 31 -110 45 -147 84 -222 118 -225
295 -372 590 -493 127 -52 343 -159 450 -223 125 -75 170 -111 268 -212 l78
-80 19 25 c29 36 59 123 63 178 7 103 -35 201 -129 297 -103 105 -257 196
-504 295 -372 149 -633 303 -805 475 -50 49 -100 109 -112 133 -12 24 -24 39
-27 34z"/>
<path d="M332 1050 c46 -217 178 -447 364 -635 133 -136 267 -234 459 -339 11
-6 22 -13 25 -16 10 -10 81 -40 95 -40 13 0 253 165 284 195 18 18 9 29 -108
132 -130 114 -243 185 -421 263 -101 44 -220 102 -285 139 -62 35 -109 64
-115 70 -3 4 -34 28 -70 56 -83 64 -139 121 -195 200 -55 77 -55 77 -33 -25z"/>
</g>
</svg>
