<?xml version="1.0" encoding="UTF-8"?> <!-- Generator: Adobe Illustrator 25.1.0, SVG Export Plug-In . SVG Version: 6.00 Build 0) --> <svg xmlns="http://www.w3.org/2000/svg" xmlns:xlink="http://www.w3.org/1999/xlink" id="Слой_1" x="0px" y="0px" viewBox="0 0 500 500" style="enable-background:new 0 0 500 500;" xml:space="preserve"> <style type="text/css"> .st0{fill:#D7AE5E;} </style> <g> <g> <path class="st0" d="M100.3,62.7c2.1-1.7,4.4-2.4,7-2.1c2.6,0.3,4.7,1.4,6.4,3.5s2.4,4.4,2.1,7c-0.3,2.6-1.4,4.8-3.5,6.4 c-2,1.6-4.2,2.3-6.7,2.1c-2.5-0.2-4.6-1.2-6.3-3.1l-2.7,2.2l5.5,6.7l-1.4,1.2L89.1,72.2l1.4-1.2l5.1,6.3l2.7-2.2 c-1.3-2-1.8-4.2-1.4-6.6C97.2,66.2,98.4,64.2,100.3,62.7z M105.5,77.8c2.1,0.2,4-0.3,5.7-1.7c1.7-1.4,2.6-3.1,2.8-5.2 c0.2-2.1-0.4-4-1.8-5.7s-3.1-2.6-5.2-2.9c-2.1-0.2-4,0.3-5.7,1.7c-1.7,1.4-2.6,3.1-2.8,5.2s0.4,4,1.8,5.7S103.4,77.6,105.5,77.8z"></path> <path class="st0" d="M117.2,50.8c1.4-0.9,2.8-1.2,4.4-0.9c1.5,0.3,2.8,1.1,3.7,2.5s1.2,2.8,0.9,4.4s-1.1,2.8-2.5,3.7l-4,2.6 l3.8,5.7l-1.5,1l-10.3-15.4L117.2,50.8z M122.7,59c1-0.6,1.5-1.5,1.7-2.5c0.2-1.1,0-2.1-0.7-3c-0.7-1-1.5-1.6-2.6-1.8 c-1-0.2-2,0-3,0.6l-4,2.6l4.5,6.8L122.7,59z"></path> <path class="st0" d="M145.1,55.6l-7.4-13.1l-1.6,18.2l-1.4,0.8l-9.1-16.1l1.6-0.9l7.4,13.1l1.6-18.2l1.4-0.8l9.1,16.1L145.1,55.6z "></path> <path class="st0" d="M161.4,45.8l1.8-0.8l2.2,4.8l-1.7,0.8l-1.5-3.2l-12,5.6l1.5,3.2l-1.7,0.8l-2.2-4.8l1.4-0.6 c0.5-1.8,0.1-4.1-1.1-6.8l-4.3-9.2l10.5-4.9L161.4,45.8z M151.2,50.5l8.5-3.9L153.4,33l-7.2,3.3l3.6,7.7 C151,46.6,151.5,48.8,151.2,50.5z"></path> <path class="st0" d="M177.5,41.4l-5.2-14.1L167.9,45l-1.5,0.5L160,28.2l1.7-0.6l5.2,14.1l4.4-17.7l1.5-0.5l6.4,17.3L177.5,41.4z"></path> <path class="st0" d="M188,19l1.8-0.5l5.1,17.8l-1.8,0.5l-2.1-7.5c-1.3,1.2-2.8,2-4.5,2.5c-1.7,0.5-3.2,0.4-4.5-0.3 c-1.3-0.7-2.1-1.7-2.6-3.2l-1.8-6.3l1.8-0.5l1.8,6.3c0.3,1,0.9,1.8,1.7,2.2c0.8,0.4,1.9,0.5,3.1,0.1c1.7-0.5,3.2-1.3,4.5-2.5 L188,19z"></path> <path class="st0" d="M200.1,33.3l8.8-1.9l0.4,1.7l-10.6,2.3l-3.8-18.1l10.5-2.2l0.4,1.7l-8.6,1.8l1.4,6.4l8-1.7l0.4,1.7l-8,1.7 L200.1,33.3z"></path> <path class="st0" d="M220.5,31.7c-2.8,0.4-5.2-0.2-7.3-1.8c-2.1-1.6-3.3-3.7-3.6-6.4c-0.4-2.7,0.2-5,1.8-7.1 c1.6-2.1,3.7-3.3,6.5-3.7c1.7-0.2,3.3,0,4.8,0.6s2.8,1.6,3.7,2.8l-1.5,1.2c-0.7-1-1.7-1.8-2.9-2.3c-1.2-0.5-2.5-0.7-3.9-0.5 c-2.3,0.3-4,1.3-5.3,3c-1.2,1.7-1.7,3.6-1.4,5.8c0.3,2.2,1.3,3.9,2.9,5.2c1.6,1.3,3.6,1.8,5.9,1.5c1.4-0.2,2.6-0.7,3.6-1.5 c1-0.8,1.8-1.8,2.2-3l1.7,0.7c-0.6,1.5-1.5,2.7-2.8,3.7C223.6,30.9,222.1,31.5,220.5,31.7z"></path> <path class="st0" d="M244,29.4l-2.4,0.1l-9.2-8.4l0.5,8.9l-1.8,0.1L230,11.7l1.8-0.1l0.5,8.4l7.9-8.9l2.4-0.1l-8.3,9.5L244,29.4z"></path> <path class="st0" d="M257.9,29.6l0.2-15l-10.5,14.9l-1.6,0l0.3-18.5l1.8,0l-0.2,15l10.5-14.9l1.6,0l-0.3,18.5L257.9,29.6z"></path> <path class="st0" d="M275.4,30.9l1.4-15l-11.6,14l-1.6-0.1l1.7-18.4l1.8,0.2l-1.4,15l11.6-14l1.6,0.1l-1.7,18.4L275.4,30.9z M268.9,9.6l0.1-1.5l6.8,0.6l-0.1,1.5L268.9,9.6z"></path> <path class="st0" d="M300.8,33.5l1.9,0.4l-1.1,5.2l-1.8-0.4l0.7-3.5l-13.1-2.7l3.7-18.1l1.8,0.4l-3.3,16.4l9.3,1.9l3.3-16.4 l1.8,0.4L300.8,33.5z"></path> <path class="st0" d="M307.3,35.2l8.6,2.4l-0.5,1.7L305,36.3l5-17.8l10.3,2.9l-0.5,1.7l-8.5-2.4l-1.8,6.3l7.9,2.2l-0.5,1.7 l-7.9-2.2L307.3,35.2z"></path> <path class="st0" d="M335.6,26.7l1.7,0.6l-6.2,17.4l-1.7-0.6l2.9-8.1l-9.4-3.4l-2.9,8.1l-1.7-0.6l6.2-17.4l1.7,0.6l-2.7,7.6 l9.4,3.4L335.6,26.7z"></path> <path class="st0" d="M352.8,34l-0.7,1.6l-5.2-2.3l-6.8,15.3l-1.7-0.7l6.8-15.3l-5.2-2.3l0.7-1.6L352.8,34z"></path> <path class="st0" d="M361.8,38.7c1.5,0.8,2.4,1.9,2.9,3.4c0.5,1.5,0.3,3-0.4,4.4c-0.8,1.5-1.9,2.4-3.4,2.9s-3,0.3-4.4-0.4 l-4.2-2.2l-3.2,6.1l-1.6-0.9l8.6-16.4L361.8,38.7z M357.3,47.4c1,0.5,2,0.6,3,0.3c1-0.3,1.8-1,2.3-2.1c0.5-1,0.7-2.1,0.4-3.1 c-0.3-1-1-1.8-2-2.3l-4.2-2.2l-3.8,7.2L357.3,47.4z"></path> <path class="st0" d="M377.5,54.3l-5,2.4l-0.1,5.6l-1.8-1.2l0.1-5.6l5-2.4L377.5,54.3z M381.1,56.6l-5,2.4l-0.1,5.6l-1.8-1.2 l0.1-5.6l5-2.4L381.1,56.6z"></path> <path class="st0" d="M398.5,67.6c0.6,2,0.2,3.8-1.2,5.6c-1.3,1.7-3,2.6-5,2.6c-2,0-4.2-0.8-6.4-2.3l-1.3,1.7l-1.5-1.1l1.3-1.7 c-2.1-1.7-3.4-3.6-3.9-5.5c-0.6-2-0.2-3.8,1.2-5.6c1.3-1.7,3-2.6,5-2.6c2,0,4.2,0.8,6.4,2.3l1.3-1.7l1.5,1.1l-1.3,1.7 C396.6,63.8,397.9,65.6,398.5,67.6z M387,60.4c-1.6,0-2.9,0.6-3.9,2c-1,1.3-1.3,2.8-0.9,4.3c0.5,1.5,1.5,2.9,3.2,4.3l6.6-8.7 C390.3,61.1,388.6,60.4,387,60.4z M386.9,72.1c1.8,1.2,3.5,1.9,5,1.9c1.6,0,2.9-0.6,3.9-2c1-1.3,1.3-2.8,0.9-4.3 c-0.5-1.5-1.5-3-3.2-4.3L386.9,72.1z"></path> <path class="st0" d="M402.3,90.1l1.8-4.5l-6.5-5.8l-4.3,2.2l-1.5-1.3l17.6-9l1.4,1.3l-7,18.5L402.3,90.1z M399.2,78.9l5.5,5 l3.8-9.9L399.2,78.9z"></path> <path class="st0" d="M419.2,93.6c0.3,0.9,0.4,1.8,0.2,2.8c-0.2,0.9-0.6,1.7-1.4,2.4c-1,1-2.2,1.5-3.7,1.4c-1.4,0-2.6-0.5-3.6-1.6 l-5.6-5.8l13.3-12.8l5.2,5.4c1,1,1.4,2.2,1.4,3.5c0,1.4-0.5,2.5-1.5,3.5C422.3,93.6,420.9,94,419.2,93.6z M412.1,97.5 c0.6,0.7,1.4,1,2.3,1c0.9,0,1.7-0.3,2.4-1c0.7-0.6,1-1.4,1.1-2.4s-0.3-1.7-0.9-2.4l-4.3-4.5l-4.9,4.7L412.1,97.5z M422.4,86.6 l-3.9-4l-4.6,4.5l3.9,4c0.6,0.6,1.3,0.9,2.2,0.9s1.6-0.3,2.3-0.9c0.6-0.6,1-1.4,1-2.2C423.3,88,423,87.2,422.4,86.6z"></path> <path class="st0" d="M427.9,114.7c-2.6-0.3-4.8-1.4-6.4-3.5c-1.7-2.1-2.4-4.4-2.1-7c0.3-2.6,1.4-4.7,3.5-6.4 c2.1-1.7,4.4-2.4,7-2.1s4.8,1.4,6.5,3.5c1.7,2.1,2.4,4.4,2.1,7c-0.3,2.6-1.4,4.8-3.5,6.4C432.8,114.3,430.5,115,427.9,114.7z M421.1,104.4c-0.2,2.1,0.3,4,1.7,5.7c1.4,1.7,3.1,2.6,5.2,2.8c2.1,0.2,4-0.4,5.7-1.8c1.7-1.4,2.6-3.1,2.9-5.2 c0.2-2.1-0.3-4-1.7-5.7c-1.4-1.7-3.1-2.6-5.2-2.8s-4,0.4-5.7,1.8S421.3,102.3,421.1,104.4z"></path> <path class="st0" d="M448.3,115.7c0.9,1.4,1.3,2.8,1,4.4s-1.1,2.8-2.5,3.7s-2.8,1.3-4.4,1c-1.5-0.3-2.8-1.1-3.7-2.5l-2.7-3.9 l-5.6,3.9l-1-1.5l15.2-10.5L448.3,115.7z M440.1,121.3c0.7,0.9,1.5,1.5,2.6,1.7c1.1,0.2,2.1-0.1,3-0.7c1-0.7,1.6-1.5,1.8-2.6 c0.2-1.1,0-2-0.7-3l-2.7-3.9l-6.7,4.6L440.1,121.3z"></path> <path class="st0" d="M443.9,143.6l13-7.6l-18.2-1.3l-0.8-1.4l15.9-9.3l0.9,1.6l-13,7.6l18.2,1.3l0.8,1.4l-15.9,9.3L443.9,143.6z"></path> <path class="st0" d="M468.3,150.9l-1.6,0.8l-2.5-5.1l-15,7.4l-0.8-1.7l15-7.4l-2.5-5.1l1.6-0.8L468.3,150.9z"></path> <path class="st0" d="M464.9,157.1l-3.2,4.5l-5.5-0.8l-0.8-2l5.5,0.8l3.2-4.5L464.9,157.1z M466.6,160.9l-3.2,4.5l-5.5-0.8l-0.8-2 l5.5,0.8l3.2-4.5L466.6,160.9z"></path> <path class="st0" d="M487.7,214.3c0.4,2.6-0.1,5-1.6,7.2c-1.5,2.1-3.6,3.4-6.2,3.9c-2.6,0.4-5-0.1-7.1-1.6 c-2.1-1.5-3.4-3.6-3.9-6.2c-0.4-2.5,0.1-4.8,1.5-6.9c1.4-2,3.3-3.3,5.8-3.9l-0.6-3.4l-8.5,1.4l-0.3-1.8l18.2-3.1l0.3,1.8l-8,1.3 l0.6,3.4c2.4-0.1,4.6,0.6,6.4,2C486.1,209.9,487.3,211.9,487.7,214.3z M471.9,211.4c-1.2,1.7-1.7,3.6-1.3,5.8 c0.4,2.2,1.4,3.8,3.1,5c1.7,1.2,3.7,1.6,5.8,1.3s3.8-1.4,5.1-3.1c1.2-1.7,1.7-3.6,1.3-5.8c-0.4-2.2-1.4-3.8-3.1-5 c-1.7-1.2-3.7-1.6-5.8-1.3S473.2,209.7,471.9,211.4z"></path> <path class="st0" d="M489.6,234.9c0.1,1.6-0.3,3.1-1.4,4.3c-1,1.2-2.4,1.8-4,2c-1.7,0.1-3.1-0.3-4.3-1.4s-1.8-2.4-2-4l-0.3-4.7 l-6.8,0.5l-0.1-1.8l18.4-1.3L489.6,234.9z M479.8,235.6c0.1,1.1,0.5,2.1,1.3,2.7c0.8,0.7,1.8,1,3,0.9s2.1-0.5,2.8-1.3 c0.7-0.8,1-1.8,0.9-2.9l-0.3-4.7l-8.1,0.6L479.8,235.6z"></path> <path class="st0" d="M471.6,256.7l15,0.2l-14.9-10.5l0-1.6l18.5,0.3l0,1.8l-15-0.2l14.9,10.5l0,1.6l-18.5-0.3L471.6,256.7z"></path> <path class="st0" d="M472.2,275.8l-0.2,2l-5.3-0.4l0.1-1.8l3.5,0.3l1.1-13.2l-3.5-0.3l0.1-1.8l5.3,0.4l-0.1,1.5 c1.3,1.3,3.5,2.1,6.4,2.3l10.1,0.8l-0.9,11.6L472.2,275.8z M473.1,264.6l-0.8,9.3l14.9,1.2l0.6-7.9l-8.4-0.7 C476.6,266.3,474.5,265.7,473.1,264.6z"></path> <path class="st0" d="M468.1,292l14.9,2.4l-13.2-12.6l0.3-1.6l18.2,2.9l-0.3,1.8l-14.9-2.4l13.2,12.6l-0.3,1.6l-18.2-2.9L468.1,292 z"></path> <path class="st0" d="M482.5,312.1l-0.4,1.8l-18-4.3l0.4-1.8l7.6,1.8c-0.4-1.7-0.4-3.5,0-5.2c0.4-1.7,1.2-3,2.4-3.8 c1.2-0.8,2.6-1,4.1-0.6l6.4,1.5l-0.4,1.8l-6.4-1.5c-1-0.3-2-0.1-2.7,0.4c-0.8,0.5-1.3,1.4-1.6,2.6c-0.4,1.7-0.4,3.4,0,5.2 L482.5,312.1z"></path> <path class="st0" d="M464.1,315.6l-2.7,8.6l-1.7-0.5l3.2-10.3l17.6,5.5l-3.2,10.2l-1.7-0.5l2.6-8.4l-6.2-2l-2.5,7.8l-1.7-0.5 l2.5-7.8L464.1,315.6z"></path> <path class="st0" d="M455.4,334.1c1-2.6,2.7-4.4,5.1-5.4s4.8-1,7.3,0c2.5,1,4.2,2.7,5.3,5.1c1,2.4,1,4.9,0,7.5 c-0.6,1.6-1.6,2.9-2.9,3.9c-1.3,1-2.7,1.6-4.3,1.8l-0.3-1.9c1.3-0.1,2.4-0.6,3.5-1.4c1-0.8,1.8-1.9,2.3-3.1c0.9-2.1,0.9-4.2,0-6.1 c-0.9-1.9-2.3-3.3-4.3-4.1s-4-0.8-5.9,0s-3.3,2.3-4.2,4.4c-0.5,1.3-0.7,2.6-0.5,3.9c0.2,1.3,0.7,2.4,1.5,3.4l-1.5,1.2 c-1-1.2-1.6-2.6-1.9-4.3C454.6,337.3,454.8,335.7,455.4,334.1z"></path> <path class="st0" d="M445.9,355.7l1.1-2.2l11.8-3.8l-8-3.9l0.8-1.7l16.6,8.1l-0.8,1.7l-7.6-3.7l3.9,11.3l-1.1,2.2l-4.1-11.9 L445.9,355.7z"></path> <path class="st0" d="M438.9,367.8l13,7.6l-7.8-16.5l0.8-1.4l15.9,9.3l-0.9,1.6l-13-7.6l7.8,16.5l-0.8,1.4l-15.9-9.3L438.9,367.8z"></path> <path class="st0" d="M429,382.4l12.3,8.6l-6.4-17.1l0.9-1.3l15.2,10.6l-1.1,1.5l-12.3-8.6l6.4,17.1l-0.9,1.3L428,383.9L429,382.4z M450.8,387.2l1.3,0.9l-3.9,5.6l-1.3-0.9L450.8,387.2z"></path> <path class="st0" d="M414.2,403.1l-1.3,1.5l-4-3.5l1.2-1.4l2.7,2.3l8.8-10l13.9,12.2l-1.2,1.4l-12.6-11l-6.2,7.2l12.6,11l-1.2,1.4 L414.2,403.1z"></path> <path class="st0" d="M409.6,407.9l-6.4,6.3L402,413l7.7-7.6l13,13.1l-7.6,7.5l-1.2-1.2l6.3-6.2l-4.6-4.6l-5.8,5.8l-1.2-1.2 l5.8-5.8L409.6,407.9z"></path> <path class="st0" d="M403,436.7l-1.4,1.2l-12.1-14l1.4-1.2l5.6,6.5l7.6-6.6l-5.6-6.5l1.4-1.2l12.1,14l-1.4,1.2l-5.3-6.1l-7.6,6.6 L403,436.7z"></path> <path class="st0" d="M388.2,448.1l-1-1.4l4.5-3.4l-10-13.4l1.5-1.1l10,13.4l4.5-3.4l1,1.4L388.2,448.1z"></path> <path class="st0" d="M379.7,453.7c-1.4,0.9-2.8,1.2-4.4,0.9c-1.5-0.3-2.8-1.2-3.7-2.6s-1.2-2.8-0.9-4.4c0.3-1.5,1.2-2.8,2.6-3.7 l4-2.6l-3.7-5.8l1.6-1l10.1,15.5L379.7,453.7z M374.3,445.5c-1,0.6-1.5,1.5-1.8,2.5s0,2.1,0.6,3.1c0.6,1,1.5,1.6,2.5,1.8 c1,0.2,2,0,3-0.6l4-2.6l-4.4-6.8L374.3,445.5z"></path> <path class="st0" d="M354.6,461.7l0.4-5.6l-4.8-2.9l1.9-1l4.8,2.9l-0.4,5.6L354.6,461.7z M358.4,459.7l0.4-5.6l-4.8-2.9l1.9-1 l4.8,2.9l-0.4,5.6L358.4,459.7z"></path> <path class="st0" d="M336.5,471.4c-2-0.5-3.4-1.7-4.3-3.7c-0.9-2-0.8-3.9,0.2-5.7c1-1.8,2.7-3.3,5.1-4.4l-0.8-1.9l1.7-0.7l0.8,1.9 c2.5-0.9,4.7-1.2,6.7-0.7c2,0.5,3.4,1.7,4.3,3.7c0.9,2,0.8,3.9-0.2,5.7c-1,1.8-2.7,3.2-5.1,4.4l0.8,1.9l-1.7,0.7l-0.8-1.9 C340.8,471.6,338.5,471.9,336.5,471.4z M338.3,459.1c-1.9,1-3.3,2.1-4.1,3.5c-0.8,1.4-0.9,2.8-0.2,4.4c0.7,1.6,1.8,2.5,3.3,2.8 c1.5,0.3,3.3,0.1,5.3-0.6L338.3,459.1z M348.4,465c0.8-1.4,0.9-2.8,0.2-4.4c-0.7-1.6-1.8-2.5-3.3-2.8c-1.5-0.3-3.3-0.1-5.3,0.6 l4.3,10C346.3,467.5,347.6,466.3,348.4,465z"></path> <path class="st0" d="M315,463.7l3.1,3.8l8.3-2.8l0.2-4.9l1.9-0.6l-0.8,19.8l-1.8,0.6l-12.6-15.2L315,463.7z M326.3,466.5l-7.1,2.4 l6.7,8.2L326.3,466.5z"></path> <path class="st0" d="M303.6,476.7c-1-0.2-1.8-0.5-2.5-1.2c-0.7-0.6-1.2-1.4-1.4-2.4c-0.4-1.4-0.2-2.7,0.5-3.9 c0.7-1.2,1.8-2,3.2-2.4l7.8-2l4.6,17.9l-7.2,1.9c-1.3,0.3-2.6,0.2-3.8-0.5c-1.2-0.7-1.9-1.7-2.3-3 C302.1,479.4,302.5,477.9,303.6,476.7z M303.8,468.5c-0.9,0.2-1.6,0.7-2,1.5c-0.5,0.8-0.6,1.7-0.3,2.6c0.2,0.9,0.7,1.6,1.5,2.1 c0.8,0.5,1.6,0.6,2.5,0.4l6-1.5l-1.7-6.6L303.8,468.5z M308.1,482.9l5.4-1.4l-1.6-6.2l-5.4,1.4c-0.8,0.2-1.5,0.7-1.9,1.5 c-0.4,0.8-0.5,1.6-0.3,2.4c0.2,0.9,0.7,1.5,1.4,2C306.5,483,307.3,483.1,308.1,482.9z"></path> <path class="st0" d="M281,473.8c1.5-2.1,3.6-3.4,6.2-3.9c2.6-0.4,5,0.1,7.2,1.6c2.1,1.5,3.4,3.6,3.9,6.2c0.4,2.6-0.1,5-1.6,7.1 c-1.5,2.1-3.6,3.4-6.2,3.9c-2.6,0.4-5-0.1-7.2-1.6s-3.4-3.6-3.9-6.2C278.9,478.3,279.5,475.9,281,473.8z M293.3,473 c-1.7-1.2-3.6-1.7-5.8-1.3s-3.8,1.4-5,3.1c-1.2,1.7-1.6,3.7-1.3,5.8c0.4,2.1,1.4,3.8,3.1,5.1c1.7,1.2,3.6,1.7,5.8,1.3 c2.2-0.4,3.8-1.4,5-3.1s1.6-3.7,1.3-5.8C296,475.9,295,474.2,293.3,473z"></path> <path class="st0" d="M270.1,491c-1.6,0.1-3.1-0.3-4.3-1.3c-1.2-1-1.9-2.3-2-4c-0.1-1.6,0.3-3.1,1.3-4.3s2.3-1.9,4-2l4.7-0.4 l-0.6-6.8l1.8-0.2l1.6,18.4L270.1,491z M269.2,481.2c-1.1,0.1-2,0.6-2.7,1.4c-0.7,0.8-1,1.8-0.9,3c0.1,1.2,0.6,2.1,1.4,2.8 c0.8,0.7,1.8,1,2.9,0.9l4.7-0.4l-0.7-8.1L269.2,481.2z"></path> <path class="st0" d="M247.9,473.4l0.2,15l10-15.2l1.6,0l0.3,18.5l-1.8,0l-0.2-15L248,491.9l-1.6,0l-0.3-18.5L247.9,473.4z"></path> <path class="st0" d="M229.6,491.1l0.1-1.7l5.7,0.3l0.9-16.7l1.8,0.1l-0.9,16.7l5.7,0.3l-0.1,1.7L229.6,491.1z"></path> <path class="st0" d="M221.7,484.6l-2.4-5l3.4-4.4l2.2,0.2l-3.4,4.4l2.4,5L221.7,484.6z M225.9,485.1l-2.4-5l3.4-4.4l2.2,0.2 l-3.4,4.4l2.4,5L225.9,485.1z"></path> <path class="st0" d="M164.9,476.8c-2.5-0.9-4.3-2.6-5.4-4.9c-1.1-2.4-1.2-4.8-0.3-7.3c0.9-2.5,2.5-4.3,4.9-5.4s4.8-1.2,7.3-0.3 c2.4,0.9,4.2,2.4,5.3,4.7c1.1,2.2,1.3,4.6,0.6,7l3.3,1.2l2.9-8.1l1.7,0.6l-6.3,17.4l-1.7-0.6l2.8-7.6l-3.3-1.2 c-1.1,2.2-2.7,3.7-4.9,4.6C169.5,477.6,167.2,477.6,164.9,476.8z M175.2,464.5c-0.9-1.9-2.3-3.2-4.4-4s-4-0.7-5.9,0.3 c-1.9,0.9-3.2,2.4-4,4.4s-0.7,4,0.2,5.9c0.9,1.9,2.3,3.2,4.4,4c2.1,0.7,4,0.7,5.9-0.3c1.9-0.9,3.2-2.4,4-4.4 C176.1,468.4,176.1,466.4,175.2,464.5z"></path> <path class="st0" d="M146,468.3c-1.5-0.7-2.5-1.8-3-3.3c-0.5-1.5-0.4-3,0.3-4.5c0.7-1.5,1.8-2.5,3.3-3s3-0.4,4.5,0.3l4.3,2 l2.9-6.2l1.7,0.8l-7.9,16.7L146,468.3z M150.2,459.4c-1-0.5-2.1-0.5-3.1-0.2c-1,0.4-1.8,1.1-2.3,2.2c-0.5,1.1-0.6,2.1-0.2,3.1 c0.3,1,1,1.8,2.1,2.3l4.3,2l3.5-7.3L150.2,459.4z"></path> <path class="st0" d="M135.8,442l-7.4,13.1l16.4-8l1.4,0.8l-9.1,16.1l-1.6-0.9l7.4-13.1l-16.4,8l-1.4-0.8l9.1-16.1L135.8,442z"></path> <path class="st0" d="M119,433l-1.6-1.1l3-4.4l1.5,1l-2,2.9l10.9,7.4l2-2.9l1.5,1l-3,4.4l-1.2-0.8c-1.8,0.5-3.5,2-5.2,4.4l-5.7,8.4 l-9.6-6.5L119,433z M128.3,439.3l-7.7-5.3l-8.4,12.4l6.5,4.4l4.8-7C125,441.5,126.7,440,128.3,439.3z"></path> <path class="st0" d="M107,421.4l-9.4,11.7l17.4-5.3l1.2,1l-11.6,14.4l-1.4-1.2l9.4-11.7l-17.4,5.3l-1.2-1l11.6-14.4L107,421.4z"></path> <path class="st0" d="M82.4,424l-1.3-1.3l12.6-13.5l1.3,1.3l-5.3,5.7c1.7,0.5,3.2,1.4,4.5,2.6c1.3,1.2,2,2.5,2.1,4 c0.1,1.4-0.4,2.7-1.4,3.9l-4.5,4.8l-1.3-1.3l4.5-4.8c0.7-0.8,1.1-1.6,1-2.6c-0.1-0.9-0.6-1.8-1.5-2.7c-1.3-1.2-2.8-2-4.5-2.6 L82.4,424z"></path> <path class="st0" d="M88.4,406.3l-6.1-6.6l1.3-1.2l7.4,7.9l-13.5,12.6l-7.3-7.8l1.3-1.2l6,6.5l4.8-4.5l-5.6-6l1.3-1.2l5.6,6 L88.4,406.3z"></path> <path class="st0" d="M76.5,389.6c1.8,2.2,2.5,4.6,2.2,7.1c-0.3,2.6-1.5,4.7-3.6,6.4c-2.1,1.7-4.4,2.4-7,2.1 c-2.6-0.3-4.8-1.5-6.5-3.7c-1.1-1.3-1.7-2.8-2-4.4c-0.3-1.6-0.1-3.2,0.5-4.6l1.8,0.7c-0.5,1.2-0.7,2.4-0.5,3.7 c0.2,1.3,0.7,2.5,1.6,3.6c1.4,1.8,3.2,2.8,5.3,3c2.1,0.2,4-0.4,5.7-1.8c1.7-1.4,2.7-3.1,2.9-5.2c0.2-2.1-0.3-4-1.8-5.8 c-0.9-1.1-1.9-1.8-3.1-2.3c-1.2-0.5-2.5-0.6-3.7-0.3l-0.3-1.9c1.6-0.3,3.1-0.1,4.7,0.5C74.1,387.3,75.4,388.3,76.5,389.6z"></path> <path class="st0" d="M62.4,370.7l1.4,2l-2.5,12.2l7.4-5.1l1,1.5l-15.2,10.5l-1-1.5l7-4.8l-11.7-2.1l-1.4-2l12.4,2.2L62.4,370.7z"></path> <path class="st0" d="M55.3,358.7l-13,7.6l18.2,1.3l0.8,1.4l-16,9.3l-0.9-1.6l13-7.6l-18.2-1.3l-0.8-1.4l16-9.3L55.3,358.7z"></path> <path class="st0" d="M32.6,359.5l-1.4,0.7l-3-6.2l1.4-0.7L32.6,359.5z M47.4,342.9l-13.6,6.5l18,2.8l0.7,1.4l-16.7,8l-0.8-1.7 l13.6-6.5l-18-2.8l-0.7-1.4l16.7-8L47.4,342.9z"></path> <path class="st0" d="M36.7,319.8L36,318l5-1.8l0.6,1.7l-3.3,1.2l4.4,12.6l-17.4,6.1l-0.6-1.7l15.8-5.6l-3.2-9l-15.8,5.6l-0.6-1.7 L36.7,319.8z"></path> <path class="st0" d="M34.8,313.4l-2.4-8.7l1.7-0.5l2.9,10.4l-17.8,4.9l-2.8-10.3l1.7-0.5l2.3,8.5l6.3-1.7l-2.2-7.9l1.7-0.5 l2.2,7.9L34.8,313.4z"></path> <path class="st0" d="M13,293.5l-0.4-1.8l18.1-3.6l0.4,1.8l-8.5,1.7l2,9.8l8.5-1.7l0.4,1.8l-18.1,3.6l-0.4-1.8l7.9-1.6l-2-9.8 L13,293.5z"></path> <path class="st0" d="M10.4,275l1.7-0.2l0.7,5.6l16.6-2.1l0.2,1.8l-16.6,2.1l0.7,5.6l-1.7,0.2L10.4,275z"></path> <path class="st0" d="M9.7,264.8c-0.1-1.7,0.4-3.1,1.4-4.2s2.4-1.8,4-1.9c1.7-0.1,3.1,0.4,4.2,1.4s1.8,2.4,1.9,4l0.3,4.7l6.9-0.4 l0.1,1.8l-18.4,1.1L9.7,264.8z M19.6,264.2c-0.1-1.1-0.5-2.1-1.3-2.8c-0.8-0.7-1.8-1-3-0.9c-1.2,0.1-2.1,0.5-2.8,1.3 c-0.7,0.8-1,1.8-1,2.9l0.3,4.7l8.1-0.5L19.6,264.2z"></path> <path class="st0" d="M15.1,243.3l4.7,3.1l4.8-2.8l-0.1,2.2l-4.8,2.8l-4.7-3.1L15.1,243.3z M15.2,239.1l4.7,3.1l4.8-2.8l-0.1,2.2 l-4.8,2.8l-4.7-3.1L15.2,239.1z"></path> <path class="st0" d="M15.6,218.6c1.4-1.5,3.2-2.1,5.4-1.9s3.8,1.2,4.8,3c1.1,1.8,1.5,4,1.3,6.6l2.1,0.2l-0.2,1.8l-2.1-0.2 c-0.4,2.6-1.3,4.7-2.7,6.2c-1.4,1.5-3.2,2.1-5.4,1.9c-2.2-0.2-3.8-1.2-4.8-3c-1.1-1.7-1.5-4-1.3-6.6l-2.1-0.2l0.2-1.8l2.1,0.2 C13.3,222.1,14.2,220.1,15.6,218.6z M15.4,232.1c0.8,1.4,2,2.1,3.7,2.3c1.7,0.2,3-0.3,4.1-1.5c1.1-1.2,1.7-2.8,2.1-5l-10.9-1.2 C14.3,229,14.6,230.7,15.4,232.1z M25.5,226.1c0.1-2.2-0.2-3.9-1-5.3c-0.8-1.4-2-2.1-3.7-2.3c-1.7-0.2-3,0.3-4.1,1.5 c-1.1,1.2-1.7,2.8-2.1,5L25.5,226.1z"></path> <path class="st0" d="M32.9,203.6l-4.8,0.8l-1.6,8.6l4.1,2.5l-0.4,1.9l-16.8-10.4l0.4-1.9l19.5-3.5L32.9,203.6z M24.9,212.1 l1.4-7.3l-10.4,1.8L24.9,212.1z"></path> <path class="st0" d="M27.2,187.3c0.6-0.8,1.4-1.3,2.3-1.6s1.8-0.3,2.8-0.1c1.4,0.4,2.4,1.2,3.1,2.4s0.9,2.5,0.5,3.9l-2.1,7.8 l-17.8-4.8l1.9-7.2c0.4-1.3,1.1-2.3,2.3-3c1.2-0.7,2.4-0.8,3.8-0.5C25.6,184.7,26.7,185.7,27.2,187.3z M19.6,188.2l-1.4,5.4 l6.2,1.7l1.4-5.4c0.2-0.8,0.1-1.6-0.3-2.4c-0.4-0.7-1.1-1.2-2-1.5c-0.9-0.2-1.7-0.1-2.4,0.3S19.8,187.3,19.6,188.2z M34.2,191.5 c0.2-0.9,0.1-1.7-0.4-2.5c-0.5-0.8-1.2-1.3-2.1-1.6c-0.9-0.2-1.8-0.1-2.6,0.3c-0.8,0.4-1.3,1.1-1.6,2l-1.6,6l6.6,1.8L34.2,191.5z"></path> <path class="st0" d="M40.8,169c1.1,2.4,1.2,4.8,0.3,7.3s-2.5,4.3-4.9,5.4c-2.4,1.1-4.8,1.2-7.3,0.3c-2.5-0.9-4.3-2.5-5.4-4.9 c-1.1-2.4-1.2-4.8-0.3-7.3c0.9-2.5,2.5-4.3,4.9-5.4c2.4-1.1,4.8-1.2,7.3-0.3C37.9,165,39.7,166.7,40.8,169z M35.5,180.2 c1.9-0.9,3.2-2.3,4-4.4c0.7-2.1,0.7-4-0.3-5.9c-0.9-1.9-2.4-3.2-4.4-4c-2-0.7-4-0.7-5.9,0.2c-1.9,0.9-3.2,2.3-4,4.4 s-0.7,4,0.3,5.9c0.9,1.9,2.4,3.2,4.4,4C31.6,181.1,33.6,181,35.5,180.2z"></path> <path class="st0" d="M31.2,151.1c0.7-1.5,1.8-2.5,3.2-3.1c1.5-0.5,3-0.5,4.5,0.2c1.5,0.7,2.5,1.8,3.1,3.2c0.5,1.5,0.5,3-0.2,4.5 l-2,4.3l6.2,2.8l-0.8,1.7l-16.8-7.7L31.2,151.1z M40.2,155.2c0.5-1,0.5-2.1,0.1-3.1c-0.4-1-1.1-1.7-2.2-2.2 c-1.1-0.5-2.1-0.6-3.1-0.2c-1,0.4-1.7,1.1-2.2,2.1l-2,4.3l7.4,3.4L40.2,155.2z"></path> <path class="st0" d="M57.4,140.5l-13.2-7.2l8.2,16.3l-0.8,1.4L35.5,142l0.9-1.6l13.2,7.2l-8.2-16.3l0.8-1.4l16.2,8.9L57.4,140.5z"></path> <path class="st0" d="M51.2,115.7l1.5,0.9l-3.1,4.8l14.1,9.1l-1,1.6L48.5,123l-3.1,4.8l-1.5-0.9L51.2,115.7z"></path> <path class="st0" d="M58.2,115.6l5.6,0.4l2.1,5.1l-1.3,1.8l-2.1-5.1l-5.6-0.4L58.2,115.6z M60.6,112.1l5.6,0.4l2.1,5.1l-1.3,1.8 l-2.1-5.1l-5.6-0.4L60.6,112.1z"></path> </g> <g> <circle class="st0" cx="76.3" cy="95.7" r="4.8"></circle> </g> <g> <circle class="st0" cx="201.8" cy="479.4" r="4.8"></circle> </g> <g> <circle class="st0" cx="471" cy="182" r="4.8"></circle> </g> </g> </svg> 